<?xml version="1.0" encoding="utf-8"?>
<!-- Generator: Adobe Illustrator 18.0.0, SVG Export Plug-In . SVG Version: 6.00 Build 0)  -->
<!DOCTYPE svg PUBLIC "-//W3C//DTD SVG 1.1//EN" "http://www.w3.org/Graphics/SVG/1.1/DTD/svg11.dtd">
<svg version="1.1" id="图层_1" xmlns="http://www.w3.org/2000/svg" xmlns:xlink="http://www.w3.org/1999/xlink" x="0px" y="0px"
	 viewBox="0 0 1024 1024" style="enable-background:new 0 0 1024 1024;" xml:space="preserve">
<style type="text/css">
	.st0{clip-path:url(#SVGID_2_);}
</style>
<g>
	<path d="M284.456,759.47c55.886,0,101.19-45.303,101.19-101.185c0-55.885-45.303-101.184-101.19-101.184
		c-55.881,0-101.184,45.299-101.184,101.184C183.272,714.166,228.575,759.47,284.456,759.47L284.456,759.47z M284.456,718.993
		c-33.529,0-60.708-27.178-60.708-60.709c0-33.529,27.178-60.712,60.708-60.712c33.53,0,60.713,27.183,60.713,60.712
		C345.169,691.815,317.986,718.993,284.456,718.993L284.456,718.993z M284.456,718.993"/>
	<g>
		<defs>
			<rect id="SVGID_1_" x="92.262" y="165.08" width="829.911" height="595.385"/>
		</defs>
		<clipPath id="SVGID_2_">
			<use xlink:href="#SVGID_1_"  style="overflow:visible;"/>
		</clipPath>
		<path class="st0" d="M749.909,759.47c55.885,0,101.189-45.303,101.189-101.185c0-55.885-45.303-101.184-101.189-101.184
			c-55.882,0-101.185,45.299-101.185,101.184C648.723,714.166,694.027,759.47,749.909,759.47L749.909,759.47z M749.909,718.993
			c-33.53,0-60.709-27.178-60.709-60.709c0-33.529,27.179-60.712,60.709-60.712c33.534,0,60.712,27.183,60.712,60.712
			C810.621,691.815,783.442,718.993,749.909,718.993L749.909,718.993z M749.909,718.993"/>
		<path class="st0" d="M921.927,668.4V476.021c0-55.917-45.247-101.322-100.999-101.322H112.374
			c-11.174,0-20.236,9.062-20.236,20.236v182.71c0,55.813,45.34,101.161,101.031,101.161c11.177,0,20.236-9.059,20.236-20.236
			c0-11.179-9.059-20.236-20.236-20.236c-33.335,0-60.558-27.227-60.558-60.688v-182.71l-20.236,20.236h708.554
			c33.367,0,60.522,27.252,60.522,60.85V668.4c0,11.179,9.062,20.24,20.24,20.24C912.864,688.641,921.927,679.579,921.927,668.4
			L921.927,668.4z M380.826,678.805h277.949c11.177,0,20.236-9.059,20.236-20.236c0-11.179-9.059-20.236-20.236-20.236H380.826
			c-11.177,0-20.24,9.058-20.24,20.236C360.586,669.746,369.649,678.805,380.826,678.805L380.826,678.805z M380.826,678.805"/>
		<path class="st0" d="M321.808,196.042l-17.111,9.434h293.61l-14.308-5.925L776.422,391.98l49.377-3.513L612.617,170.931
			l-5.925-5.925H293.535l-5.953,9.439L152.919,388.467h47.468L321.808,196.042z M321.808,196.042"/>
	</g>
	<rect x="466.59" y="185.242" width="40.477" height="202.625"/>
</g>
</svg>
