<?xml version="1.0" encoding="utf-8"?>
<!-- Generator: Adobe Illustrator 18.0.0, SVG Export Plug-In . SVG Version: 6.00 Build 0)  -->
<!DOCTYPE svg PUBLIC "-//W3C//DTD SVG 1.1//EN" "http://www.w3.org/Graphics/SVG/1.1/DTD/svg11.dtd">
<svg version="1.1" id="图层_1" xmlns="http://www.w3.org/2000/svg" xmlns:xlink="http://www.w3.org/1999/xlink" x="0px" y="0px"
	 viewBox="0 0 1024 1024" style="enable-background:new 0 0 1024 1024;" xml:space="preserve">
<style type="text/css">
	.st0{clip-path:url(#SVGID_2_);}
	.st1{clip-path:url(#SVGID_4_);}
</style>
<g>
	<g>
		<defs>
			<rect id="SVGID_1_" x="160.182" y="193.815" width="760.585" height="761.639"/>
		</defs>
		<clipPath id="SVGID_2_">
			<use xlink:href="#SVGID_1_"  style="overflow:visible;"/>
		</clipPath>
		<path class="st0" d="M177.347,470.438c-9.543,0-17.287-7.743-17.287-17.287V245.703c0-9.544,7.744-17.288,17.287-17.288
			c9.544,0,17.288,7.744,17.288,17.288v207.448C194.634,462.695,186.89,470.438,177.347,470.438L177.347,470.438z M177.347,470.438"
			/>
		<path class="st0" d="M367.508,470.438H177.347c-9.543,0-17.287-7.743-17.287-17.287c0-9.544,7.744-17.288,17.287-17.288h190.162
			c9.544,0,17.287,7.744,17.287,17.288C384.795,462.695,377.052,470.438,367.508,470.438L367.508,470.438z M367.508,470.438"/>
	</g>
	<path d="M540.378,660.599c-9.54,0-17.288-7.747-17.288-17.287v-311.17c0-9.544,7.748-17.292,17.288-17.292
		c9.544,0,17.291,7.748,17.291,17.292v311.17C557.669,652.852,549.922,660.599,540.378,660.599L540.378,660.599z M540.378,660.599"
		/>
	<g>
		<defs>
			<rect id="SVGID_3_" x="160.182" y="193.815" width="760.585" height="761.639"/>
		</defs>
		<clipPath id="SVGID_4_">
			<use xlink:href="#SVGID_3_"  style="overflow:visible;"/>
		</clipPath>
		<path class="st1" d="M638.588,712.824c-4.824,0-9.611-2.006-13.018-5.911L475.171,534.902c-6.275-7.19-5.548-18.099,1.642-24.389
			c7.209-6.276,18.118-5.536,24.393,1.642l150.399,172.007c6.276,7.19,5.552,18.098-1.642,24.393
			C646.68,711.388,642.616,712.824,638.588,712.824L638.588,712.824z M638.588,712.824"/>
		<path class="st1" d="M540.378,954.482c-209.711,0-380.318-170.606-380.318-380.322c0-9.539,7.744-17.287,17.287-17.287
			c9.544,0,17.288,7.748,17.288,17.287c0,190.648,155.1,345.748,345.744,345.748c190.648,0,345.748-155.1,345.748-345.748
			c0-190.643-155.1-345.744-345.748-345.744c-140.647,0-266.154,84.018-319.78,214.036c-3.613,8.815-13.691,13.033-22.577,9.386
			c-8.817-3.632-13.034-13.742-9.386-22.577c58.967-143.001,197.041-235.418,351.742-235.418
			c209.715,0,380.322,170.606,380.322,380.317C920.7,783.876,750.093,954.482,540.378,954.482L540.378,954.482z M540.378,954.482"/>
	</g>
</g>
</svg>
