<?xml version="1.0" encoding="utf-8"?>
<!-- Generator: Adobe Illustrator 18.0.0, SVG Export Plug-In . SVG Version: 6.00 Build 0)  -->
<!DOCTYPE svg PUBLIC "-//W3C//DTD SVG 1.1//EN" "http://www.w3.org/Graphics/SVG/1.1/DTD/svg11.dtd">
<svg version="1.1" id="图层_1" xmlns="http://www.w3.org/2000/svg" xmlns:xlink="http://www.w3.org/1999/xlink" x="0px" y="0px"
	 viewBox="0 0 1024 1024" style="enable-background:new 0 0 1024 1024;" xml:space="preserve">
<style type="text/css">
	.st0{clip-path:url(#SVGID_2_);}
</style>
<g>
	<g>
		<defs>
			<rect id="SVGID_1_" x="76.2" y="73.741" width="874.275" height="875.214"/>
		</defs>
		<clipPath id="SVGID_2_">
			<use xlink:href="#SVGID_1_"  style="overflow:visible;"/>
		</clipPath>
		<path class="st0" d="M472.13,652.275c8.502,7.815,21.686,7.432,29.723-0.862l255.781-263.992
			c8.186-8.448,7.973-21.94-0.475-30.126c-8.452-8.19-21.944-7.978-30.13,0.475L471.247,621.758l29.722-0.858L346.175,478.622
			c-8.66-7.964-22.141-7.393-30.104,1.267c-7.961,8.664-7.394,22.144,1.27,30.109L472.13,652.275z M472.13,652.275"/>
		<path class="st0" d="M949.664,511.094c0-241.239-195.559-436.798-436.793-436.798c-241.239,0-436.798,195.559-436.798,436.798
			c0,241.234,195.559,436.793,436.798,436.793c100.161,0,195.213-33.841,271.943-94.964c9.206-7.331,10.723-20.736,3.391-29.942
			c-7.332-9.202-20.736-10.722-29.938-3.386c-69.254,55.16-154.966,85.677-245.396,85.677
			c-217.704,0-394.184-176.48-394.184-394.179c0-217.704,176.48-394.184,394.184-394.184c217.699,0,394.179,176.48,394.179,394.184
			c0,74.639-20.757,146.167-59.356,208.127c-6.223,9.985-3.17,23.127,6.815,29.35c9.989,6.224,23.131,3.17,29.35-6.82
			C926.64,673.082,949.664,593.756,949.664,511.094L949.664,511.094z M949.664,511.094"/>
	</g>
</g>
</svg>
