<?xml version="1.0" encoding="utf-8"?>
<!-- Generator: Adobe Illustrator 18.0.0, SVG Export Plug-In . SVG Version: 6.00 Build 0)  -->
<!DOCTYPE svg PUBLIC "-//W3C//DTD SVG 1.1//EN" "http://www.w3.org/Graphics/SVG/1.1/DTD/svg11.dtd">
<svg version="1.1" id="图层_1" xmlns="http://www.w3.org/2000/svg" xmlns:xlink="http://www.w3.org/1999/xlink" x="0px" y="0px"
	 viewBox="0 0 1024 1024" style="enable-background:new 0 0 1024 1024;" xml:space="preserve">
<style type="text/css">
	.st0{clip-path:url(#SVGID_2_);}
</style>
<g>
	<g>
		<defs>
			<rect id="SVGID_1_" x="136.679" y="147.919" width="724.473" height="659.042"/>
		</defs>
		<clipPath id="SVGID_2_">
			<use xlink:href="#SVGID_1_"  style="overflow:visible;"/>
		</clipPath>
		<path class="st0" d="M154.49,268.486h-17.918v447.123c0,49.94,40.226,90.493,89.61,90.493h587.465V440.787
			c0-10.012-8.022-18.125-17.918-18.125c-9.896,0-17.919,8.113-17.919,18.125v347.189l17.919-18.125H226.182
			c-29.619,0-53.773-24.346-53.773-54.242V286.611l-17.919,18.125h405.201c9.896,0,17.918-8.117,17.918-18.125
			c0-10.012-8.022-18.125-17.918-18.125H154.49z M154.49,268.486"/>
	</g>
	<path d="M443.52,528.604l-3.689,4.736l-0.147,6.026l-2.645,107.045l-0.648,26.358l24.561-8.825l103.09-37.039l5.006-1.796
		l3.227-4.267l277.437-366.687l11.01-14.556l-14.509-10.975l-92.416-69.912l-13.995-10.587l-10.814,13.887L443.52,528.604z
		 M732.332,187.742l92.416,69.912l-3.496-25.53L543.814,598.81l8.233-6.063l-103.09,37.038l23.909,17.533l2.645-107.045
		l-3.839,10.762l285.47-366.592L732.332,187.742z M732.332,187.742"/>
	<path d="M769.381,325.57l20.99-29.381l-80.47-58.821l-20.991,29.381L769.381,325.57z M769.381,325.57"/>
</g>
</svg>
