<?xml version="1.0" encoding="utf-8"?>
<!-- Generator: Adobe Illustrator 21.0.2, SVG Export Plug-In . SVG Version: 6.00 Build 0)  -->
<svg version="1.1" id="图层_1" xmlns="http://www.w3.org/2000/svg" xmlns:xlink="http://www.w3.org/1999/xlink" x="0px" y="0px"
	 viewBox="0 0 1024 1024" style="enable-background:new 0 0 1024 1024;" xml:space="preserve">
<g>
	<g>
		<path d="M675.7,450.1H567.6v27.4h79.8v65.1h-80.5V570h108.8V450.1z M322,599.4l9.6,31.5c12.5-17.2,23.3-33.3,32.2-48.2v227.1h29
			V525.3c10.8-25,20-52.4,27.8-81.8l-26.9-12.7C378.7,494.4,354.8,550.6,322,599.4z M539.6,702.2h-75V649h74.6v-28.3h-74.6V570h82.6
			V450H436.4v359.3h28.3v-79.7h75V702.2z M464.6,477.5h55.2v65.4h-55.2V477.5z M924.4,16.2h-6.3h-818H89.3c-8.1,0-15.7,2-22.4,5.5
			C28.3,34.8,0.5,70.3,0.5,112v800.1c0,52.8,44.7,95.7,99.6,95.7h824.3c54.8,0,99.5-42.9,99.6-95.7V112
			C1024,59.1,979.3,16.2,924.4,16.2z M707.9,80.2c33.2,0,60.3,28.7,60.3,63.9c0,35.3-26.9,63.9-60.3,63.9
			c-33.2,0-60.2-28.6-60.2-63.9C647.6,108.9,674.7,80.2,707.9,80.2z M316.6,80.2c33.2,0,60.2,28.7,60.2,63.9
			c0,35.3-27,63.9-60.2,63.9c-33.2,0-60.3-28.6-60.3-63.9C256.3,108.9,283.4,80.2,316.6,80.2z M953.9,944.1H70.5
			c-2.5,0-4.4-0.8-5.2-0.8c-0.3,0-0.5,0.2-0.6,0.5l-0.4-671.6h895.4l0.4,669.7C959.9,942.3,957.9,944.1,953.9,944.1z M637.5,736.1
			c19.8-27.9,34.2-62,43.1-102.4V608H554.2v27.5h11.2c5.7,36.5,17.8,69.5,36.3,98.7l0.4,0.4c-19.1,21-43,38.3-71.4,51.9l15.7,25
			c29-13.8,53.3-31.4,73.3-53.3c17.8,21,39.8,38.3,66.1,51.9l13.7-25C677.3,773.5,656.6,757.1,637.5,736.1z M619.2,712.7
			c-14.7-21.9-24.3-47.6-28.5-77.4h63.7C646.1,664.3,634.5,690.1,619.2,712.7z"/>
	</g>
</g>
</svg>
