<?xml version="1.0" encoding="utf-8"?>
<!-- Generator: Adobe Illustrator 21.0.2, SVG Export Plug-In . SVG Version: 6.00 Build 0)  -->
<svg version="1.1" id="图层_1" xmlns="http://www.w3.org/2000/svg" xmlns:xlink="http://www.w3.org/1999/xlink" x="0px" y="0px"
	 viewBox="0 0 1024 1024" style="enable-background:new 0 0 1024 1024;" xml:space="preserve">
<g>
	<path d="M512.7,718.3c101.8,0,184.7-82.8,184.7-184.7V184.7C697.4,82.8,614.5,0,512.7,0C410.9,0,328,82.8,328,184.7v348.9
		C328,635.4,410.9,718.3,512.7,718.3L512.7,718.3z M399.7,184.7c0-62.3,50.7-113,113-113c62.3,0,113,50.7,113,113v348.9
		c0,62.3-50.7,113-113,113c-62.3,0-113-50.7-113-113V184.7z M817.2,495.8c-19.8,0-35.8,16-35.8,35.8c0,51.3-28.7,108.2-76.7,152.1
		c-53.5,49-122.9,75.9-195.3,75.9c-153,0-267.4-118.4-267.4-224.3c0-19.8-16-35.8-35.8-35.8s-35.8,16-35.8,35.8
		c0,72.1,35.6,146.2,97.6,203.1c58,53.2,132,85.1,211.2,91.6V952H353.9c-19.8,0-35.8,16-35.8,35.8c0,19.8,16,35.8,35.8,35.8h303.3
		c19.8,0,35.8-16,35.8-35.8c0-19.8-16-35.8-35.8-35.8H550.8V828.9c75.1-8.6,145.8-40.7,202.2-92.3c30.4-27.8,55.5-60.8,72.7-95.4
		c17.8-35.9,27.3-73.8,27.3-109.6C853,511.8,837,495.8,817.2,495.8L817.2,495.8z M817.2,495.8"/>
</g>
</svg>
