<?xml version="1.0" encoding="utf-8"?>
<!-- Generator: Adobe Illustrator 21.0.2, SVG Export Plug-In . SVG Version: 6.00 Build 0)  -->
<svg version="1.1" id="图层_1" xmlns="http://www.w3.org/2000/svg" xmlns:xlink="http://www.w3.org/1999/xlink" x="0px" y="0px"
	 viewBox="0 0 1024 1024" style="enable-background:new 0 0 1024 1024;" xml:space="preserve">
<g>
	<g>
		<path d="M263,347.9v-86.7c-9.1-18.9-13.8-39.6-13.9-60.6c0-82.2,71.3-148.9,159.3-148.9c88,0,159.4,66.7,159.4,148.9
			c0,11-1.3,22-3.9,32.7c19.1,0.5,37.3,8,51.3,21c5.3-17.4,8-35.4,8.1-53.6C623.3,89.8,527.1,0,408.5,0
			C289.9,0,193.8,89.8,193.8,200.7C193.7,258.9,220.4,311.3,263,347.9z M868.4,392.7h-2.8c-20.5,0-37.4,5.5-53.5,14.9
			c-14.2-38.7-50.2-66.5-96.7-66.5c-19.7,0-39.2,5.1-56.3,14.8c-14.2-38.6-50.3-66.5-96.8-66.5c-18.1,0-35,4.2-49.9,11.7v-99.5
			c0-54.2-43.9-98.1-102.3-98.1c-58.4,0-105.8,44-105.8,98.1v380.9L240,522.8c-41.2-38.3-114.4-32.9-149.6,0
			c-35.1,32.8-58.2,99-7.9,146.1L378,943.1c6.1,5.7,12.8,10.4,19.8,14.4c53.8,41,115.6,65.3,246,65.3
			c298.1,0,325.7-150.3,325.7-335.6V490.9C969.6,436.7,926.8,392.7,868.4,392.7z"/>
	</g>
</g>
</svg>
