<?xml version="1.0" encoding="utf-8"?>
<!-- Generator: Adobe Illustrator 21.0.2, SVG Export Plug-In . SVG Version: 6.00 Build 0)  -->
<svg version="1.1" id="图层_1" xmlns="http://www.w3.org/2000/svg" xmlns:xlink="http://www.w3.org/1999/xlink" x="0px" y="0px"
	 viewBox="0 0 1024 1024" style="enable-background:new 0 0 1024 1024;" xml:space="preserve">
<g>
	<g>
		<path d="M771.4,504.9h-221V252.2c0-18.5-13-31.6-31.6-31.6c-18.5,0-31.6,13-31.6,31.6v252.6c0,18.5,44.6,63.2,63.1,63.2h221
			C790,568,803,555,803,536.4C803,517.9,790,504.9,771.4,504.9z M856.3,31.1l-53.3,0v63.1h63.1c55.6,0,94.7,39.2,94.7,94.8v63.2
			h63.1v-53.3C1024,106.3,961.4,31.1,856.3,31.1z M518.8,62.7c-259.4,0-469.7,214.2-469.7,473.7c0,177.9,98.9,332.6,244.7,412.3
			l61.6,31.1c45.6,14.7,112.8,26.2,163.4,26.2c50.5,0,117.8-11.5,163.4-26.2l61.6-31.1C889.5,869,988.5,714.3,988.5,536.4
			C988.5,276.9,778.2,62.7,518.8,62.7z M518.8,947c-232,0-410.5-178.5-410.5-410.6c0-232,178.5-410.5,410.5-410.5
			c222.3,0,410.5,178.5,410.5,410.5C929.3,768.5,750.8,947,518.8,947z M76.8,189.1c0-55.6,39.1-94.8,94.7-94.8h63.2V31.1l-53.3,0
			c-105.1,0-167.7,75.1-167.7,167.7v53.3h63.1V189.1z"/>
	</g>
</g>
</svg>
