<?xml version="1.0" encoding="utf-8"?>
<!-- Generator: Adobe Illustrator 21.0.2, SVG Export Plug-In . SVG Version: 6.00 Build 0)  -->
<svg version="1.1" id="图层_1" xmlns="http://www.w3.org/2000/svg" xmlns:xlink="http://www.w3.org/1999/xlink" x="0px" y="0px"
	 viewBox="0 0 1024 1024" style="enable-background:new 0 0 1024 1024;" xml:space="preserve">
<style type="text/css">
	.st0{fill-rule:evenodd;clip-rule:evenodd;fill:#515151;}
</style>
<g>
	<g>
		<path class="st0" d="M1012,193.5l-14.5-15c-16-16.5-41.8-16.5-57.8,0L578.5,552.4L390.7,358c-7.7-7.9-18.1-12.4-28.9-12.4
			c-10.8,0-21.2,4.5-28.9,12.4l-14.4,14.9c-7.7,7.9-12,18.7-12,29.9c0,11.2,4.3,22,12,29.9L549.6,672c7.7,7.9,18.1,12.4,28.9,12.4
			c10.8,0,21.2-4.5,28.9-12.4l14.4-15L1012,253.3C1028,236.8,1028,210,1012,193.5z M812.1,609.8c-14.9-2.3-28.6,4.1-33.3,14.8h-0.1
			c-52.3,138.3-186,236.7-342.7,236.7c-202.3,0-366.2-164-366.2-366.2s164-366.2,366.2-366.2c98.4,0,187.7,38.8,253.5,101.9h0.2
			c0.6,0.7,1.2,1.4,1.9,2c9.9,9,27.3,6,38.9-6.7c11.6-12.7,13-30.4,3.1-39.4c-0.1,0-0.1-0.1-0.2-0.1c-77.1-74.3-181.9-120-297.4-120
			C199.4,66.5,7.5,258.4,7.5,495S199.4,923.6,436,923.6c184.4,0,341.6-116.5,402-280c0.1-0.3,0.3-0.7,0.4-1c0-0.1,0.1-0.2,0.1-0.2
			l0,0c0.3-1,0.6-2.1,0.8-3.2C841.4,625.6,829.2,612.5,812.1,609.8z"/>
	</g>
</g>
</svg>
