<?xml version="1.0" encoding="utf-8"?>
<!-- Generator: Adobe Illustrator 21.0.2, SVG Export Plug-In . SVG Version: 6.00 Build 0)  -->
<svg version="1.1" id="图层_1" xmlns="http://www.w3.org/2000/svg" xmlns:xlink="http://www.w3.org/1999/xlink" x="0px" y="0px"
	 viewBox="0 0 1024 1024" style="enable-background:new 0 0 1024 1024;" xml:space="preserve">
<style type="text/css">
	.st0{fill:#515151;}
</style>
<path class="st0" d="M1021.4,459.8C997.7,220.1,803.9,26.3,564.2,2.6C240.4-29.5-29.5,240.4,2.6,564.2
	c23.7,239.6,217.5,433.4,457.2,457.2C783.6,1053.5,1053.5,783.6,1021.4,459.8z M836.7,544.2H550.6v292.6c0,21.3-17.3,38.6-38.6,38.6
	s-38.6-17.3-38.6-38.6V544.2H187.3c-21.3,0-38.6-17.3-38.6-38.6c0-21.3,17.3-38.6,38.6-38.6h286.1V187.3c0-21.3,17.3-38.6,38.6-38.6
	s38.6,17.3,38.6,38.6V467h286.1c21.3,0,38.6,17.3,38.6,38.6C875.3,526.9,858,544.2,836.7,544.2z"/>
</svg>
