<?xml version="1.0" encoding="utf-8"?>
<!-- Generator: Adobe Illustrator 21.0.2, SVG Export Plug-In . SVG Version: 6.00 Build 0)  -->
<svg version="1.1" id="图层_1" xmlns="http://www.w3.org/2000/svg" xmlns:xlink="http://www.w3.org/1999/xlink" x="0px" y="0px"
	 viewBox="0 0 1024 1024" style="enable-background:new 0 0 1024 1024;" xml:space="preserve">
<path d="M939.5,249.4c4.6-36.7-1-68.4-40.1-114.2l-108.3-103c0,0-28-25.3-91.6-31.8C622.1-7.7,575.9,50,575.9,50L89.6,512.1
	c0,0-85.5,79.3-89.5,195.8c-3.4,100.3,55.8,167.7,119.1,227.8c96.5,91.7,207.7,100.1,264.3,78.6c61.4-23.4,119.4-74.9,119.4-74.9
	L1024,444.2L965.8,389L452.1,877.2c0,0-81.4,77.8-148.9,67.3c-55.1-8.6-137.7-62-180.7-124.5c-36.4-53-38.1-115.4-34.9-132.1
	c10.9-56.4,36.2-96,67.1-125.4c13.6-12.9,474.4-450.8,474.4-450.8s34-31.6,69.2-31.3c35.2,0.3,62.5,24,62.5,24l60,57
	c0,0,31.3,33.7,30.5,70.2c-0.5,23.1-16.5,51.6-31.9,65.4c-23.1,20.6-426.1,405-426.1,405s-40.8,23.4-69-6
	c-25.5-26.6-12.9-55.8-3.1-68.4l309.1-293.7l-58-55.2L249.1,585.6c0,0-47,40.6-20.5,110.7c15.8,41.8,73.1,99.1,135.7,97
	c55.9-1.9,100.7-49,100.7-49L877.7,352C877.7,352,932.7,304,939.5,249.4L939.5,249.4z M939.5,249.4"/>
</svg>
