<?xml version="1.0" encoding="utf-8"?>
<!-- Generator: Adobe Illustrator 21.0.2, SVG Export Plug-In . SVG Version: 6.00 Build 0)  -->
<svg version="1.1" id="图层_1" xmlns="http://www.w3.org/2000/svg" xmlns:xlink="http://www.w3.org/1999/xlink" x="0px" y="0px"
	 viewBox="0 0 1024 1024" style="enable-background:new 0 0 1024 1024;" xml:space="preserve">
<style type="text/css">
	.st0{fill-rule:evenodd;clip-rule:evenodd;fill:#070102;}
</style>
<g>
	<g>
		<path class="st0" d="M512.6,10.1C234,10.1,8.2,236,8.2,514.6S234,1019,512.6,1019c278.6,0,504.4-225.8,504.4-504.4
			S791.2,10.1,512.6,10.1z M512.6,934.9c-232.2,0-420.3-188.2-420.3-420.3c0-232.2,188.2-420.3,420.3-420.3
			c232.2,0,420.3,188.2,420.3,420.3C932.9,746.7,744.7,934.9,512.6,934.9z M512.6,312.8c-111.4,0-201.8,90.3-201.8,201.8
			s90.3,201.8,201.8,201.8c111.4,0,201.8-90.3,201.8-201.8S624,312.8,512.6,312.8z"/>
	</g>
</g>
</svg>
