<?xml version="1.0" encoding="utf-8"?>
<!-- Generator: Adobe Illustrator 21.0.2, SVG Export Plug-In . SVG Version: 6.00 Build 0)  -->
<svg version="1.1" id="图层_1" xmlns="http://www.w3.org/2000/svg" xmlns:xlink="http://www.w3.org/1999/xlink" x="0px" y="0px"
	 viewBox="0 0 1024 1024" style="enable-background:new 0 0 1024 1024;" xml:space="preserve">
<style type="text/css">
	.st0{fill:#070102;}
</style>
<path class="st0" d="M876.4,993.4L513.9,631.2L151.4,993.4c-33,33-86.5,33.1-119.6,0.3C15.9,977.9,7,956.5,6.9,934.1
	c0-22.3,8.8-43.8,24.6-59.6l362.9-362.7L31.6,149C7.4,124.9,0.2,88.6,13.3,57.1c13.1-31.5,44-52,78.1-51.9
	c21.5,0,43.4,8.2,59.9,24.8l362.6,362.2L876.4,29.8c15.9-16,37.5-24.9,60-24.8c34.1-0.1,65,20.3,78.1,51.9
	c13.1,31.5,5.9,67.8-18.3,91.9l-362.9,363l362.8,362.7c15.9,15.8,24.8,37.2,24.8,59.6s-8.9,43.8-24.8,59.6
	C962.9,1026.5,909.4,1026.4,876.4,993.4L876.4,993.4z M876.4,993.4"/>
</svg>
