<?xml version="1.0" encoding="utf-8"?>
<!-- Generator: Adobe Illustrator 21.0.2, SVG Export Plug-In . SVG Version: 6.00 Build 0)  -->
<svg version="1.1" id="图层_1" xmlns="http://www.w3.org/2000/svg" xmlns:xlink="http://www.w3.org/1999/xlink" x="0px" y="0px"
	 viewBox="0 0 1024 1024" style="enable-background:new 0 0 1024 1024;" xml:space="preserve">
<style type="text/css">
	.st0{fill:#060001;}
</style>
<path class="st0" d="M1006.9,274.1L450.2,832.6l-20.6,20.7c-10.9,11-25.8,17.1-41.3,17.1c-15.5,0-30.3-6.2-41.2-17.1L17.1,522.3
	C6.2,511.4,0,496.5,0,481c0-15.5,6.2-30.4,17.1-41.4l20.6-20.7c10.9-11,25.8-17.1,41.3-17.1s30.3,6.2,41.2,17.1l268.1,268.9
	l515.5-517.1c22.8-22.8,59.7-22.8,82.5,0l20.6,20.7C1029.7,214.2,1029.7,251.3,1006.9,274.1L1006.9,274.1z M1006.9,274.1"/>
</svg>
