<?xml version="1.0" encoding="utf-8"?>
<!-- Generator: Adobe Illustrator 21.0.2, SVG Export Plug-In . SVG Version: 6.00 Build 0)  -->
<svg version="1.1" id="图层_1" xmlns="http://www.w3.org/2000/svg" xmlns:xlink="http://www.w3.org/1999/xlink" x="0px" y="0px"
	 viewBox="0 0 1024 1024" style="enable-background:new 0 0 1024 1024;" xml:space="preserve">
<style type="text/css">
	.st0{fill:#070102;}
</style>
<path class="st0" d="M50,558.9h70.7V102.9c0-25.9,10.1-48.9,25.8-66.1c16.2-17.2,38.1-27.9,62.3-27.9h611.5
	c24.2,0,46.1,10.7,62.7,27.9l1.1,0.9c14.8,17.2,24.1,39.9,24.1,65.2v456h70.9c21.4,0,38.8,18.3,38.8,41v373.8
	c0,23.1-17.4,41.4-38.8,41.4H50c-21.4,0-38.4-18.4-38.4-41.4V599.9C11.6,577.1,28.6,558.9,50,558.9 M167.1,558.9H277
	c20.3,0,37.4,16.6,39,37.6c7.6,50,32.4,94.6,67.6,125.8c35.1,32.4,81.1,51.8,131.3,51.8c50,0,95.3-19.3,130.7-51.8
	c35.4-32,61-77.2,68.1-128.7c3.3-20.1,19.5-34.7,38.4-34.7h109.9V102.9c0-11.9-4.5-22.7-11-30.2l-1.1-1.6
	c-7.7-7.9-18.2-13.1-29.7-13.1H208.8c-11.5,0-22,5.2-29.4,13.1c-7.4,7.8-12.3,19.1-12.3,31.7V558.9 M295.7,344.5l153.8,163.4
	c14.9,15.3,39.5,15.3,54.4,0l276.9-293.7c15.4-16.3,15.4-41.9,0-58.2c-14.8-16-39.6-16-54.4,0L476.7,420.6L350.6,286.8
	c-14.7-15.4-39.5-16.1-54.3,0C280.8,302.5,280.6,328.7,295.7,344.5"/>
</svg>
