<?xml version="1.0" encoding="utf-8"?>
<!-- Generator: Adobe Illustrator 21.0.2, SVG Export Plug-In . SVG Version: 6.00 Build 0)  -->
<svg version="1.1" id="图层_1" xmlns="http://www.w3.org/2000/svg" xmlns:xlink="http://www.w3.org/1999/xlink" x="0px" y="0px"
	 viewBox="0 0 1024 1024" style="enable-background:new 0 0 1024 1024;" xml:space="preserve">
<style type="text/css">
	.st0{fill:#040000;}
</style>
<g>
	<g>
		<path class="st0" d="M924.3,16h-6.3H99.7H88.9c-8.1,0-15.7,2-22.4,5.5C27.8,34.6,0,70.1,0,111.8v800.5c0,52.8,44.7,95.8,99.7,95.8
			h824.6c54.8,0,99.5-42.9,99.7-95.8V111.8C1024,58.9,979.3,16,924.3,16z M707.7,80C741,80,768,108.7,768,144
			c0,35.3-26.9,63.9-60.3,63.9c-33.2,0-60.3-28.7-60.3-63.9C647.5,108.7,674.5,80,707.7,80z M316.3,80c33.2,0,60.3,28.7,60.3,63.9
			c0,35.3-27,63.9-60.3,63.9c-33.2,0-60.3-28.7-60.3-63.9C256,108.7,283,80,316.3,80z M953.9,944.3H70.1c-2.5,0-4.4-0.8-5.2-0.8
			c-0.3,0-0.5,0.2-0.6,0.5L63.9,272h895.9l0.4,670C959.9,942.5,957.8,944.3,953.9,944.3z M544,784h32v-32h64v32h32V496H544V784z
			 M576,528h64v192h-64V528z M512,496h-64v-64h-32v64h-64v32h64v32c-0.7,102.3-20.7,146.3-64,192l32,32c46.7-50.9,62.8-114.1,64-224
			v-32h32c-0.7,104,1.5,176.7-0.7,197.2c-2.9,21-12,26.8-31.3,26.8c-1.2,0-0.9,0.1,0,0.1V784c32.8,0,65.7-33.5,64-64
			C510.5,689.1,512,616.1,512,496z"/>
	</g>
</g>
</svg>
