<?xml version="1.0" encoding="utf-8"?>
<!-- Generator: Adobe Illustrator 21.0.2, SVG Export Plug-In . SVG Version: 6.00 Build 0)  -->
<svg version="1.1" id="图层_1" xmlns="http://www.w3.org/2000/svg" xmlns:xlink="http://www.w3.org/1999/xlink" x="0px" y="0px"
	 viewBox="0 0 1024 1024" style="enable-background:new 0 0 1024 1024;" xml:space="preserve">
<style type="text/css">
	.st0{clip-path:url(#SVGID_2_);}
</style>
<g>
	<g>
		<defs>
			<rect id="SVGID_1_" x="1.9" y="85.1" width="1022.1" height="853.6"/>
		</defs>
		<clipPath id="SVGID_2_">
			<use xlink:href="#SVGID_1_"  style="overflow:visible;"/>
		</clipPath>
		<path class="st0" d="M853.1,383.8c-106.5-35-63.8-101.8-127.7-127.7c-108.6-44-212.9-42.6-212.9-42.6s-104-1.1-212.9,42.6
			c-64.1,25.7-21.2,92.7-127.7,127.7C59.3,420.9,0.5,366.6,1.7,299.5c0.8-45,28.5-95.7,85-128.6c144.6-84.3,425.8-85.2,425.8-85.2
			s281.2,0.9,425.8,85.2c56,32.7,83.8,82.9,84.9,127.6C1025,366,966.3,421,853.1,383.8L853.1,383.8z M367.2,353.6h72.5v73.1h146.1
			v-73.1h73.1v73.1l292.6,255.2v170.3c0,47-51.3,85.2-98.3,85.2H171.9c-47,0-97.1-38.2-97.1-85.2V681.9l292.4-255.2V353.6z
			 M513.4,829.2c80.7,0,146.1-65.4,146.1-146.1c0-80.7-65.4-146.1-146.1-146.1c-80.7,0-146.1,65.4-146.1,146.1
			C367.3,763.8,432.7,829.2,513.4,829.2L513.4,829.2z M513.4,829.2"/>
	</g>
</g>
</svg>
