<?xml version="1.0" encoding="utf-8"?>
<!-- Generator: Adobe Illustrator 21.0.2, SVG Export Plug-In . SVG Version: 6.00 Build 0)  -->
<svg version="1.1" id="图层_1" xmlns="http://www.w3.org/2000/svg" xmlns:xlink="http://www.w3.org/1999/xlink" x="0px" y="0px"
	 viewBox="0 0 1024 1024" style="enable-background:new 0 0 1024 1024;" xml:space="preserve">
<style type="text/css">
	.st0{clip-path:url(#SVGID_2_);fill:#231815;}
</style>
<g>
	<defs>
		<rect id="SVGID_1_" x="0.2" y="0.2" width="1023.8" height="1023.8"/>
	</defs>
	<clipPath id="SVGID_2_">
		<use xlink:href="#SVGID_1_"  style="overflow:visible;"/>
	</clipPath>
	<path class="st0" d="M784.5,536.1c-52.1,0-90.2-38.5-90.2-83.5s41.6-83.5,90.2-83.5c52.1,0,90.2,38.5,90.2,83.5
		C874.8,500.8,836.6,536.1,784.5,536.1 M510.4,536.1c-52.1,0-90.2-38.5-90.2-83.5s41.6-83.5,90.2-83.5c52.1,0,90.2,38.5,90.2,83.5
		C600.6,500.8,562.4,536.1,510.4,536.1 M236.2,536.1c-52.1,0-90.2-38.5-90.2-83.5s41.6-83.5,90.2-83.5c52.1,0,90.2,38.5,90.2,83.5
		C326.4,500.8,284.8,536.1,236.2,536.1 M510.4,0.1C225.8,0.1-3.3,205.6,0.2,459.1c0,125.2,55.5,237.5,145.8,321V1024l229-118.8
		c41.7,9.6,86.8,16.1,135.4,16.1c284.6,0,513.6-202.2,513.6-459S795,0.1,510.4,0.1"/>
</g>
</svg>
